<?xml version="1.0" standalone="no"?>
<!DOCTYPE svg PUBLIC "-//W3C//DTD SVG 20010904//EN"
 "http://www.w3.org/TR/2001/REC-SVG-20010904/DTD/svg10.dtd">
<svg version="1.0" xmlns="http://www.w3.org/2000/svg"
 width="260.000000pt" height="260.000000pt" viewBox="0 0 260.000000 260.000000"
 preserveAspectRatio="xMidYMid meet">
<metadata>
Created by potrace 1.11, written by Peter Selinger 2001-2013
</metadata>
<g transform="translate(0.000000,260.000000) scale(0.100000,-0.100000)"
fill="#000000" stroke="none">
<path d="M2164 2463 c-4 -15 -11 -34 -17 -40 -12 -16 -49 -17 -64 -2 -8 8 -14
6 -22 -9 -6 -11 -23 -22 -38 -24 -21 -2 -29 -10 -35 -34 -9 -38 -28 -47 -64
-33 -15 5 -27 8 -28 7 -11 -27 -28 -44 -47 -46 -13 -2 -32 -11 -41 -19 -10 -9
-18 -13 -18 -8 0 4 -7 2 -15 -5 -8 -6 -31 -13 -52 -14 -21 -1 -50 -9 -63 -19
-13 -9 -32 -17 -42 -17 -11 0 -18 -7 -18 -19 0 -10 -7 -22 -16 -25 -24 -9 -54
-7 -54 4 0 17 -28 -1 -33 -22 -3 -11 -10 -17 -16 -13 -6 3 -11 2 -11 -3 0 -6
-10 -8 -22 -4 -17 4 -20 2 -15 -11 6 -17 -25 -33 -43 -22 -5 3 -23 -8 -41 -24
-17 -16 -40 -31 -52 -33 -23 -3 -31 -42 -15 -68 7 -10 3 -34 -12 -75 -11 -33
-25 -77 -31 -99 -5 -21 -22 -73 -38 -115 -16 -42 -41 -114 -56 -161 -28 -88
-43 -118 -76 -151 -10 -10 -19 -31 -19 -45 0 -26 -27 -94 -38 -94 -2 0 -10 7
-16 16 -11 14 -17 11 -49 -21 l-36 -36 -36 26 c-19 15 -35 31 -35 36 0 5 -5 9
-11 9 -7 0 -31 16 -55 35 -23 19 -47 35 -52 35 -5 0 -29 17 -53 38 -24 21 -66
51 -93 66 -30 18 -53 39 -60 57 -5 16 -15 29 -21 29 -24 -1 -96 -40 -90 -50
11 -18 -16 -42 -42 -35 -13 3 -23 1 -23 -5 0 -5 -14 -16 -30 -25 -38 -20 -39
-38 -3 -29 23 6 13 -7 -53 -72 -71 -69 -80 -82 -73 -102 5 -12 15 -25 24 -28
8 -4 18 -24 21 -45 6 -34 10 -39 33 -39 32 0 51 -16 51 -43 0 -12 5 -17 14
-14 8 3 57 -34 120 -93 59 -54 122 -108 141 -121 19 -13 35 -27 35 -30 0 -3
-30 -21 -66 -39 -73 -36 -105 -73 -176 -205 -42 -79 -42 -81 -40 -169 2 -87
19 -144 54 -187 36 -44 126 -63 301 -64 l108 0 36 40 c46 51 83 130 83 176 0
25 5 39 16 43 13 5 14 9 5 20 -7 8 -11 18 -10 22 1 5 -1 17 -5 26 -13 28 -2
52 27 66 33 16 77 8 77 -14 0 -8 6 -17 14 -20 8 -3 16 -14 19 -25 4 -14 14
-19 37 -19 56 0 220 -110 220 -148 0 -10 8 -12 28 -7 22 4 38 -1 71 -25 39
-29 44 -30 60 -16 10 9 29 16 43 16 29 0 58 28 58 56 0 11 9 27 20 37 11 9 20
24 20 32 0 8 6 15 14 15 8 0 16 10 20 23 3 12 23 47 45 76 45 60 59 93 43 99
-7 2 -38 24 -69 49 -32 24 -78 56 -103 69 -60 32 -104 69 -96 82 4 6 -9 23
-29 39 -35 28 -46 52 -22 54 6 0 2 4 -10 9 -26 11 -32 56 -10 82 12 14 103 78
113 78 2 0 32 17 67 38 34 20 81 44 104 51 24 8 43 21 46 32 3 11 14 19 27 19
16 0 20 4 15 19 -4 14 0 21 15 26 11 4 27 17 36 30 25 39 249 169 359 210 69
25 75 32 75 79 0 22 7 91 16 151 25 185 31 334 19 467 -6 68 6 105 43 135 l27
23 -24 0 c-20 0 -22 4 -17 24 4 16 0 30 -9 40 -8 8 -15 26 -15 40 0 24 -10 31
-57 40 -10 2 -30 7 -45 11 -24 6 -28 4 -34 -22z m-314 -661 c0 -7 -4 -10 -10
-7 -5 3 -10 16 -10 28 0 18 2 19 10 7 5 -8 10 -21 10 -28z m-1330 -453 c0 -6
-4 -7 -10 -4 -5 3 -10 11 -10 16 0 6 5 7 10 4 6 -3 10 -11 10 -16z m-168 -61
c-7 -7 -12 -8 -12 -2 0 14 12 26 19 19 2 -3 -1 -11 -7 -17z m958 -298 c0 -5
-5 -10 -11 -10 -5 0 -7 5 -4 10 3 6 8 10 11 10 2 0 4 -4 4 -10z m260 -380 c8
-5 11 -10 5 -10 -5 0 -17 5 -25 10 -8 5 -10 10 -5 10 6 0 17 -5 25 -10z"/>
</g>
</svg>
